# xmcd CD database file
#
# Track frame offsets:
#	150
#	13816
#	28209
#	46382
#	61893
#	77335
#	94622
#	108210
#	123426
#	136694
#	149711
#	162507
#	174899
#	190837
#	203743
#	216918
#	231186
#	246309
#	260954
#	272818
#	289465
#	305907
#
# Disc length: 4459 seconds
#
# Revision: 1
# Processed by: cddbd v1.5.1PL0 Copyright (c) Steve Scherf et al.
# Submitted via: CDex 1.51
#
DISCID=4e116916
DTITLE=Roy Eldridge - Disc Four: Dale's Wail
DYEAR=1951
DGENRE=Jazz
TTITLE0=Scootie
TTITLE1=Oh! Shut up
TTITLE2=Hollywood pastime
TTITLE3=I'd love him so
TTITLE4=The heat is on (Treas chaud)
TTITLE5=Wild man blues
TTITLE6=Fireworks
TTITLE7=Baby, what's the matter with you
TTITLE8=Yard you
TTITLE9=Sweet Lorraine
TTITLE10=Jumbo the elephant
TTITLE11=Basin street blues
TTITLE12=I remember Harlem
TTITLE13=Easter parade
TTITLE14=I see everybody's baby
TTITLE15=Roy's riff
TTITLE16=Wrap your troubles in dreams
TTITLE17=Rockin' chair
TTITLE18=Little Jazz
TTITLE19=Love for sale
TTITLE20=Dale's wail
TTITLE21=St. Louis blues
EXTD=YEAR: 1951
EXTT0=
EXTT1=
EXTT2=
EXTT3=
EXTT4=
EXTT5=
EXTT6=
EXTT7=
EXTT8=
EXTT9=
EXTT10=
EXTT11=
EXTT12=
EXTT13=
EXTT14=
EXTT15=
EXTT16=
EXTT17=
EXTT18=
EXTT19=
EXTT20=
EXTT21=
PLAYORDER=
